<?xml version="1.0" encoding="utf-8"?>
<!-- Generator: Adobe Illustrator 26.0.1, SVG Export Plug-In . SVG Version: 6.00 Build 0)  -->
<svg version="1.1" id="Capa_1" xmlns="http://www.w3.org/2000/svg" xmlns:xlink="http://www.w3.org/1999/xlink" x="0px" y="0px"
	 viewBox="0 0 22 24" style="enable-background:new 0 0 22 24;" xml:space="preserve">
<style type="text/css">
	.st0{fill:#FFFFFF;}
</style>
<path class="st0" d="M11,0C4.9,0,0,4.5,0,10c0,2.6,1.1,5.1,3,6.8V20c0,1.7,1.4,3,3,2.9c0.8,0,1.6-0.4,2.1-0.9
	c0.6,1.6,2.3,2.3,3.9,1.8c0.8-0.3,1.5-0.9,1.8-1.8c1.1,1.2,3,1.3,4.2,0.1c0.6-0.6,0.9-1.3,0.9-2.1v-3.1c1.9-1.8,3-4.3,3-6.8
	C22,4.5,17.1,0,11,0z M6.5,13C4.6,13,3,11.4,3,9.5S4.6,6,6.5,6S10,7.6,10,9.5S8.4,13,6.5,13z M12.1,17.1H9.9
	c-0.3,0.1-0.6-0.2-0.7-0.5c0-0.1,0-0.3,0.1-0.4l1.2-2.5c0.2-0.5,0.6-0.5,0.9,0l1.2,2.5c0.2,0.3,0.1,0.6-0.1,0.8
	C12.4,17.1,12.3,17.1,12.1,17.1z M15.5,13c-1.9,0-3.5-1.6-3.5-3.5S13.6,6,15.5,6S19,7.6,19,9.5S17.4,13,15.5,13z"/>
</svg>
